<svg xmlns="http://www.w3.org/2000/svg" width="54" height="73" viewBox="0 0 54 73">
    <g fill="none">
        <path fill="#0A1638" d="M5.797 21.374v8.462C1.996 30.216 0 33.402 0 37.272v27.743c0 4.128 3.365 7.462 7.53 7.462h37.94c4.165 0 7.53-3.334 7.53-7.462V37.272c0-3.87-1.996-7.082-5.797-7.462v-8.436C47.203 9.714 37.973.297 26.5.297 15.028.297 5.797 9.714 5.797 21.374zM26.5 8.477c7.342 0 13.25 5.77 13.25 12.948v8.385h-26.5v-8.385c0-7.179 5.908-12.948 13.25-12.948z" transform="translate(.311)"/>
        <path fill="#FF8761" stroke="#FFF" stroke-width="2" d="M32.297 46.22c0 2.017-1.053 3.796-2.64 4.82.087.295.155.602.155.924v6.564c0 1.818-1.477 3.282-3.312 3.282-1.835 0-3.313-1.464-3.313-3.282v-6.564c0-.322.07-.63.156-.923-1.587-1.025-2.64-2.804-2.64-4.82 0-3.173 2.595-5.744 5.797-5.744 3.202 0 5.797 2.571 5.797 5.743z" transform="translate(.311)"/>
    </g>
</svg>
