<svg xmlns="http://www.w3.org/2000/svg" width="50" height="62" viewBox="0 0 50 62">
    <g fill="none">
        <path fill="#FF8761" d="M35 1.586L35 15 48.414 15z"/>
        <path fill="#0A1638" d="M33 16V0H2C.895 0 0 .895 0 2v58c0 1.105.895 2 2 2h46c1.105 0 2-.895 2-2V17H34c-.552 0-1-.448-1-1zm-20 0h8c.553 0 1 .448 1 1s-.447 1-1 1h-8c-.553 0-1-.448-1-1s.447-1 1-1zm24 32H13c-.553 0-1-.448-1-1s.447-1 1-1h24c.553 0 1 .448 1 1s-.447 1-1 1zm0-10H13c-.553 0-1-.448-1-1s.447-1 1-1h24c.553 0 1 .448 1 1s-.447 1-1 1zm1-11c0 .552-.447 1-1 1H13c-.553 0-1-.448-1-1s.447-1 1-1h24c.553 0 1 .448 1 1z"/>
    </g>
</svg>
