<svg xmlns="http://www.w3.org/2000/svg" width="56" height="52" viewBox="0 0 56 52">
    <g fill="none">
        <path fill="#0A1638" d="M43.535 38.381c-4.002 0-7.256-3.332-7.256-7.429 0-4.096 3.254-7.428 7.256-7.428H52V11.143c0-.684-.542-1.238-1.21-1.238H6.048c-2 0-3.628-1.667-3.628-3.715 0-2.047 1.627-3.714 3.628-3.714h32.65V7.43h2.42v-6.19c0-.684-.542-1.239-1.21-1.239H6.047C2.712 0 0 2.777 0 6.19v37.143C0 48.113 3.797 52 8.465 52h42.326c.667 0 1.209-.555 1.209-1.238V38.38h-8.465z"/>
        <path fill="#FF8761" d="M54.786 26H43.857C41.178 26 39 28.242 39 31s2.178 5 4.857 5h10.929c.67 0 1.214-.56 1.214-1.25v-7.5c0-.69-.544-1.25-1.214-1.25z"/>
    </g>
</svg>
